G04 Layer_Color=8388736*
%FSAX25Y25*%
%MOIN*%
G70*
G01*
G75*
%ADD80R,0.06706X0.06312*%
%ADD81R,0.02800X0.09800*%
%ADD82R,0.08600X0.10600*%
%ADD83O,0.04343X0.01981*%
%ADD84O,0.01981X0.04343*%
%ADD85R,0.16272X0.16272*%
%ADD86R,0.05800X0.03000*%
%ADD87R,0.03000X0.05800*%
%ADD88O,0.02572X0.06706*%
%ADD89O,0.08280X0.03162*%
%ADD90R,0.05200X0.03200*%
%ADD91R,0.07099X0.03162*%
%ADD92R,0.04343X0.03359*%
%ADD93R,0.02178X0.01784*%
%ADD94R,0.02572X0.02572*%
%ADD95R,0.04343X0.04934*%
%ADD96R,0.06115X0.06902*%
%ADD97R,0.05918X0.07690*%
%ADD98R,0.05918X0.06902*%
%ADD99R,0.03556X0.04147*%
%ADD100R,0.01878X0.06406*%
%ADD101R,0.04147X0.03556*%
%ADD102R,0.07887X0.05524*%
%ADD103R,0.03950X0.04343*%
%ADD104R,0.06900X0.11700*%
%ADD105R,0.08477X0.04343*%
%ADD106R,0.08477X0.13202*%
%ADD107R,0.04343X0.03950*%
%ADD108R,0.06312X0.06706*%
%ADD109C,0.01800*%
%ADD110C,0.07800*%
%ADD111R,0.07800X0.07800*%
%ADD112C,0.06800*%
%ADD113C,0.13200*%
%ADD114C,0.09270*%
%ADD115C,0.17150*%
%ADD116C,0.04590*%
%ADD117C,0.03850*%
%ADD118C,0.03260*%
%ADD119C,0.02790*%
%ADD120C,0.02420*%
%ADD121C,0.02130*%
%ADD122C,0.03800*%
%ADD123C,0.02769*%
%ADD124C,0.02000*%
%ADD125C,0.02260*%
%ADD126C,0.02590*%
%ADD127C,0.03010*%
%ADD128C,0.03540*%
%ADD129C,0.04200*%
%ADD130C,0.05030*%
D80*
X0269500Y0142595D02*
D03*
Y0154405D02*
D03*
X0258000Y0142595D02*
D03*
Y0154405D02*
D03*
X0242000Y0175094D02*
D03*
Y0186906D02*
D03*
D81*
X0245350Y0127573D02*
D03*
X0248500D02*
D03*
X0254799D02*
D03*
X0242201D02*
D03*
X0251650D02*
D03*
D82*
X0230980Y0127081D02*
D03*
Y0105427D02*
D03*
X0266020Y0127081D02*
D03*
Y0105427D02*
D03*
D83*
X0173386Y0127177D02*
D03*
Y0124618D02*
D03*
Y0122059D02*
D03*
Y0119500D02*
D03*
Y0116941D02*
D03*
Y0114382D02*
D03*
Y0111823D02*
D03*
X0196614D02*
D03*
Y0114382D02*
D03*
Y0116941D02*
D03*
Y0119500D02*
D03*
Y0122059D02*
D03*
Y0124618D02*
D03*
Y0127177D02*
D03*
D84*
X0177323Y0107886D02*
D03*
X0179882D02*
D03*
X0182441D02*
D03*
X0185000D02*
D03*
X0187559D02*
D03*
X0190118D02*
D03*
X0192677D02*
D03*
Y0131114D02*
D03*
X0190118D02*
D03*
X0187559D02*
D03*
X0185000D02*
D03*
X0182441D02*
D03*
X0179882D02*
D03*
X0177323D02*
D03*
D85*
X0185000Y0119500D02*
D03*
D86*
X0130600Y0135100D02*
D03*
Y0131900D02*
D03*
Y0128800D02*
D03*
Y0125600D02*
D03*
Y0122425D02*
D03*
Y0119276D02*
D03*
Y0116126D02*
D03*
Y0112976D02*
D03*
X0164400D02*
D03*
Y0116126D02*
D03*
Y0119276D02*
D03*
Y0122425D02*
D03*
Y0125600D02*
D03*
Y0128800D02*
D03*
Y0131900D02*
D03*
Y0135100D02*
D03*
X0340100Y0166600D02*
D03*
Y0163400D02*
D03*
Y0160300D02*
D03*
Y0157100D02*
D03*
Y0153925D02*
D03*
Y0150776D02*
D03*
Y0147626D02*
D03*
Y0144476D02*
D03*
X0373900D02*
D03*
Y0147626D02*
D03*
Y0150776D02*
D03*
Y0153925D02*
D03*
Y0157100D02*
D03*
Y0160300D02*
D03*
Y0163400D02*
D03*
Y0166600D02*
D03*
D87*
X0136476Y0107100D02*
D03*
X0139626D02*
D03*
X0142776D02*
D03*
X0145925D02*
D03*
X0149100D02*
D03*
X0152300D02*
D03*
X0155400D02*
D03*
X0158600D02*
D03*
Y0140900D02*
D03*
X0155400D02*
D03*
X0152300D02*
D03*
X0149100D02*
D03*
X0145925D02*
D03*
X0142776D02*
D03*
X0139626D02*
D03*
X0136476D02*
D03*
X0345976Y0138600D02*
D03*
X0349126D02*
D03*
X0352276D02*
D03*
X0355425D02*
D03*
X0358600D02*
D03*
X0361800D02*
D03*
X0364900D02*
D03*
X0368100D02*
D03*
Y0172400D02*
D03*
X0364900D02*
D03*
X0361800D02*
D03*
X0358600D02*
D03*
X0355425D02*
D03*
X0352276D02*
D03*
X0349126D02*
D03*
X0345976D02*
D03*
D88*
X0213339Y0126972D02*
D03*
X0210780D02*
D03*
X0208221D02*
D03*
X0205661D02*
D03*
X0213339Y0111028D02*
D03*
X0210780D02*
D03*
X0208221D02*
D03*
X0205661D02*
D03*
D89*
X0194748Y0176500D02*
D03*
Y0171500D02*
D03*
Y0166500D02*
D03*
Y0161500D02*
D03*
X0213252Y0176500D02*
D03*
Y0171500D02*
D03*
Y0166500D02*
D03*
Y0161500D02*
D03*
D90*
X0202079Y0148240D02*
D03*
Y0140760D02*
D03*
Y0144500D02*
D03*
X0211921Y0140760D02*
D03*
Y0148240D02*
D03*
Y0144500D02*
D03*
D91*
X0180043Y0148500D02*
D03*
X0172957Y0144760D02*
D03*
Y0152240D02*
D03*
D92*
X0178724Y0176240D02*
D03*
Y0168760D02*
D03*
X0169276D02*
D03*
Y0172500D02*
D03*
Y0176240D02*
D03*
D93*
X0133083Y0230000D02*
D03*
X0130917D02*
D03*
X0133083Y0205000D02*
D03*
X0130917D02*
D03*
X0133083Y0242500D02*
D03*
X0130917D02*
D03*
X0133083Y0217500D02*
D03*
X0130917D02*
D03*
D94*
X0145575Y0230000D02*
D03*
X0142425D02*
D03*
X0145575Y0205000D02*
D03*
X0142425D02*
D03*
X0145575Y0242500D02*
D03*
X0142425D02*
D03*
X0145575Y0217500D02*
D03*
X0142425D02*
D03*
D95*
X0162854Y0229500D02*
D03*
X0157146D02*
D03*
X0162854Y0204500D02*
D03*
X0157146D02*
D03*
X0162854Y0242000D02*
D03*
X0157146D02*
D03*
X0162854Y0217000D02*
D03*
X0157146D02*
D03*
D96*
X0184339Y0229000D02*
D03*
X0176661D02*
D03*
X0184339Y0204000D02*
D03*
X0176661D02*
D03*
X0184339Y0241500D02*
D03*
X0176661D02*
D03*
X0184339Y0216500D02*
D03*
X0176661D02*
D03*
D97*
X0212004D02*
D03*
X0199996D02*
D03*
X0212004Y0204000D02*
D03*
X0199996D02*
D03*
X0212004Y0241500D02*
D03*
X0199996D02*
D03*
X0199996Y0229000D02*
D03*
X0212004D02*
D03*
D98*
X0409858Y0146850D02*
D03*
Y0178150D02*
D03*
X0392142Y0146850D02*
D03*
Y0178150D02*
D03*
D99*
X0298961Y0126500D02*
D03*
X0294039D02*
D03*
X0298961Y0132500D02*
D03*
X0294039D02*
D03*
X0388539Y0134500D02*
D03*
X0393461D02*
D03*
X0425961Y0183500D02*
D03*
X0421039D02*
D03*
X0285961Y0182500D02*
D03*
X0281039D02*
D03*
X0285961Y0177500D02*
D03*
X0281039D02*
D03*
D100*
X0282866Y0141728D02*
D03*
X0285425D02*
D03*
X0287984D02*
D03*
X0290543D02*
D03*
X0293102D02*
D03*
X0295661D02*
D03*
X0298220D02*
D03*
X0300780D02*
D03*
X0303339D02*
D03*
X0305898D02*
D03*
X0308457D02*
D03*
X0311016D02*
D03*
X0313575D02*
D03*
X0316134D02*
D03*
X0282866Y0170272D02*
D03*
X0285425D02*
D03*
X0287984D02*
D03*
X0290543D02*
D03*
X0293102D02*
D03*
X0295661D02*
D03*
X0298220D02*
D03*
X0300780D02*
D03*
X0303339D02*
D03*
X0305898D02*
D03*
X0308457D02*
D03*
X0311016D02*
D03*
X0313575D02*
D03*
X0316134D02*
D03*
D101*
X0333000Y0181961D02*
D03*
Y0177039D02*
D03*
X0324000D02*
D03*
Y0181961D02*
D03*
X0242000Y0195039D02*
D03*
Y0199961D02*
D03*
D102*
X0322126Y0131724D02*
D03*
X0337874D02*
D03*
X0322126Y0122276D02*
D03*
X0337874D02*
D03*
D103*
X0287461Y0132500D02*
D03*
X0282539D02*
D03*
X0268039Y0184000D02*
D03*
X0272961D02*
D03*
X0349039Y0189500D02*
D03*
X0353961D02*
D03*
X0409961Y0186500D02*
D03*
X0405039D02*
D03*
D104*
X0272900Y0174000D02*
D03*
X0254100D02*
D03*
D105*
X0249878Y0222555D02*
D03*
Y0213500D02*
D03*
Y0204445D02*
D03*
X0133878Y0175555D02*
D03*
Y0166500D02*
D03*
Y0157445D02*
D03*
D106*
X0272122Y0213500D02*
D03*
X0156122Y0166500D02*
D03*
D107*
X0383500Y0158461D02*
D03*
Y0153539D02*
D03*
X0242000Y0209961D02*
D03*
Y0205039D02*
D03*
X0331000Y0152500D02*
D03*
Y0157421D02*
D03*
X0350500Y0122961D02*
D03*
Y0118039D02*
D03*
X0345000Y0123539D02*
D03*
Y0128461D02*
D03*
X0242000Y0217539D02*
D03*
Y0222461D02*
D03*
D108*
X0437906Y0191500D02*
D03*
X0426094D02*
D03*
D109*
X0257161Y0117238D02*
D03*
X0239839D02*
D03*
D110*
X0422500Y0110000D02*
D03*
X0412500D02*
D03*
X0402500D02*
D03*
X0392500D02*
D03*
X0382500D02*
D03*
X0372500D02*
D03*
X0362500D02*
D03*
X0352500D02*
D03*
X0342500D02*
D03*
X0332500D02*
D03*
X0322500D02*
D03*
X0312500D02*
D03*
X0302500D02*
D03*
X0292500D02*
D03*
X0422500Y0290000D02*
D03*
X0412500D02*
D03*
X0402500D02*
D03*
X0392500D02*
D03*
X0382500D02*
D03*
X0372500D02*
D03*
X0362500D02*
D03*
X0352500D02*
D03*
X0342500D02*
D03*
X0332500D02*
D03*
X0322500D02*
D03*
X0312500D02*
D03*
X0302500D02*
D03*
X0292500D02*
D03*
D111*
X0282500Y0110000D02*
D03*
Y0290000D02*
D03*
D112*
X0432500Y0135000D02*
D03*
Y0145000D02*
D03*
X0422500D02*
D03*
Y0135000D02*
D03*
X0432500Y0155000D02*
D03*
X0422500D02*
D03*
D113*
X0169500Y0279000D02*
D03*
D114*
X0200000Y0277000D02*
D03*
D115*
X0133500Y0281000D02*
D03*
D116*
X0107500Y0273500D02*
D03*
D117*
Y0257500D02*
D03*
D118*
Y0243500D02*
D03*
D119*
Y0231500D02*
D03*
D120*
Y0220500D02*
D03*
D121*
Y0210000D02*
D03*
D122*
X0364500Y0146500D02*
D03*
X0246500Y0108000D02*
D03*
X0266000Y0287000D02*
D03*
X0345000Y0118500D02*
D03*
X0352500Y0146500D02*
D03*
X0404500Y0280500D02*
D03*
X0359500Y0146500D02*
D03*
X0440000Y0107500D02*
D03*
X0347500Y0146500D02*
D03*
X0275000Y0287000D02*
D03*
X0279000Y0167500D02*
D03*
X0384000Y0146500D02*
D03*
X0405000Y0162500D02*
D03*
X0312500Y0190000D02*
D03*
X0295000D02*
D03*
X0442500Y0155000D02*
D03*
Y0290000D02*
D03*
X0287984Y0148500D02*
D03*
X0232500Y0117500D02*
D03*
Y0145000D02*
D03*
D123*
X0180669Y0123831D02*
D03*
X0185000D02*
D03*
X0189331D02*
D03*
X0180669Y0119500D02*
D03*
X0185000D02*
D03*
X0189331D02*
D03*
X0180669Y0115169D02*
D03*
X0185000D02*
D03*
X0189331D02*
D03*
D124*
X0107500Y0205000D02*
D03*
D125*
Y0215000D02*
D03*
D126*
Y0226000D02*
D03*
D127*
Y0237500D02*
D03*
D128*
Y0250000D02*
D03*
D129*
Y0265000D02*
D03*
D130*
Y0283000D02*
D03*
M02*
