G04 Layer_Color=16711935*
%FSAX25Y25*%
%MOIN*%
G70*
G01*
G75*
%ADD109C,0.01800*%
%ADD110C,0.07800*%
%ADD111R,0.07800X0.07800*%
%ADD112C,0.06800*%
%ADD113C,0.13200*%
%ADD114C,0.09270*%
%ADD115C,0.17150*%
%ADD116C,0.04590*%
%ADD117C,0.03850*%
%ADD118C,0.03260*%
%ADD119C,0.02790*%
%ADD120C,0.02420*%
%ADD121C,0.02130*%
%ADD122C,0.03800*%
%ADD123C,0.02769*%
%ADD124C,0.02000*%
%ADD125C,0.02260*%
%ADD126C,0.02590*%
%ADD127C,0.03010*%
%ADD128C,0.03540*%
%ADD129C,0.04200*%
%ADD130C,0.05030*%
D109*
X0257161Y0117238D02*
D03*
X0239839D02*
D03*
D110*
X0422500Y0110000D02*
D03*
X0412500D02*
D03*
X0402500D02*
D03*
X0392500D02*
D03*
X0382500D02*
D03*
X0372500D02*
D03*
X0362500D02*
D03*
X0352500D02*
D03*
X0342500D02*
D03*
X0332500D02*
D03*
X0322500D02*
D03*
X0312500D02*
D03*
X0302500D02*
D03*
X0292500D02*
D03*
X0422500Y0290000D02*
D03*
X0412500D02*
D03*
X0402500D02*
D03*
X0392500D02*
D03*
X0382500D02*
D03*
X0372500D02*
D03*
X0362500D02*
D03*
X0352500D02*
D03*
X0342500D02*
D03*
X0332500D02*
D03*
X0322500D02*
D03*
X0312500D02*
D03*
X0302500D02*
D03*
X0292500D02*
D03*
D111*
X0282500Y0110000D02*
D03*
Y0290000D02*
D03*
D112*
X0432500Y0135000D02*
D03*
Y0145000D02*
D03*
X0422500D02*
D03*
Y0135000D02*
D03*
X0432500Y0155000D02*
D03*
X0422500D02*
D03*
D113*
X0169500Y0279000D02*
D03*
D114*
X0200000Y0277000D02*
D03*
D115*
X0133500Y0281000D02*
D03*
D116*
X0107500Y0273500D02*
D03*
D117*
Y0257500D02*
D03*
D118*
Y0243500D02*
D03*
D119*
Y0231500D02*
D03*
D120*
Y0220500D02*
D03*
D121*
Y0210000D02*
D03*
D122*
X0364500Y0146500D02*
D03*
X0246500Y0108000D02*
D03*
X0266000Y0287000D02*
D03*
X0345000Y0118500D02*
D03*
X0352500Y0146500D02*
D03*
X0404500Y0280500D02*
D03*
X0359500Y0146500D02*
D03*
X0440000Y0107500D02*
D03*
X0347500Y0146500D02*
D03*
X0275000Y0287000D02*
D03*
X0279000Y0167500D02*
D03*
X0384000Y0146500D02*
D03*
X0405000Y0162500D02*
D03*
X0312500Y0190000D02*
D03*
X0295000D02*
D03*
X0442500Y0155000D02*
D03*
Y0290000D02*
D03*
X0287984Y0148500D02*
D03*
X0232500Y0117500D02*
D03*
Y0145000D02*
D03*
D123*
X0180669Y0123831D02*
D03*
X0185000D02*
D03*
X0189331D02*
D03*
X0180669Y0119500D02*
D03*
X0185000D02*
D03*
X0189331D02*
D03*
X0180669Y0115169D02*
D03*
X0185000D02*
D03*
X0189331D02*
D03*
D124*
X0107500Y0205000D02*
D03*
D125*
Y0215000D02*
D03*
D126*
Y0226000D02*
D03*
D127*
Y0237500D02*
D03*
D128*
Y0250000D02*
D03*
D129*
Y0265000D02*
D03*
D130*
Y0283000D02*
D03*
M02*
