M48
;Layer_Color=9474304
;FILE_FORMAT=2:5
INCH
;TYPE=PLATED
T1F00S00C0.00787
T2F00S00C0.01000
T3F00S00C0.01130
T4F00S00C0.01260
T5F00S00C0.01420
T6F00S00C0.01500
T7F00S00C0.01590
T8F00S00C0.01790
T9F00S00C0.02010
T10F00S00C0.02260
T11F00S00C0.02540
T12F00S00C0.02850
T13F00S00C0.03200
T14F00S00C0.03583
T15F00S00C0.03590
T16F00S00C0.03900
T17F00S00C0.04000
T18F00S00C0.04030
T19F00S00C0.07870
T20F00S00C0.11800
T21F00S00C0.15750
%
T01
X0180669Y0115169
X0185000
X0189331
Y0119500
X0185000
X0180669
Y0123831
X0185000
X0189331
T02
X0107500Y0205000
T03
X0107500Y0210000
T04
X0107500Y0215000
T05
X0107500Y0220500
T06
X0232500Y0117500
X0246500Y0108000
X0232500Y0145000
X0287984Y0148500
X0347500Y0146500
X0352500
X0359500
X0364500
X0384000
X0442500Y0155000
X0440000Y0107500
X0345000Y0118500
X0312500Y0190000
X0405000Y0162500
X0404500Y0280500
X0442500Y0290000
X0275000Y0287000
X0266000
X0295000Y0190000
X0279000Y0167500
T07
X0107500Y0226000
T08
X0107500Y0231500
T09
X0107500Y0237500
T10
X0107500Y0243500
T11
X0107500Y0250000
T12
X0107500Y0257500
T13
X0107500Y0265000
T14
X0239839Y0117238
X0257161
T15
X0107500Y0273500
T16
X0282500Y0110000
X0292500
X0302500
X0312500
X0322500
X0332500
X0342500
X0352500
X0362500
X0372500
X0382500
X0392500
X0402500
X0412500
X0422500
Y0290000
X0412500
X0402500
X0392500
X0382500
X0372500
X0362500
X0352500
X0342500
X0332500
X0322500
X0312500
X0302500
X0292500
X0282500
T17
X0422500Y0135000
Y0145000
Y0155000
X0432500
Y0145000
Y0135000
T18
X0107500Y0283000
T19
X0200000Y0277000
T20
X0169500Y0279000
T21
X0133500Y0281000
M30
