G04 Layer_Physical_Order=2*
G04 Layer_Color=16750899*
%FSAX25Y25*%
%MOIN*%
G70*
G01*
G75*
%ADD41C,0.01000*%
%ADD42C,0.06000*%
%ADD43R,0.07000X0.07000*%
%ADD44C,0.07000*%
%ADD45C,0.01000*%
%ADD46C,0.04230*%
%ADD47C,0.03400*%
%ADD48C,0.02740*%
%ADD49C,0.02210*%
%ADD50C,0.01790*%
%ADD51C,0.01460*%
%ADD52C,0.01200*%
%ADD53C,0.03000*%
%ADD54C,0.01969*%
%ADD55C,0.01330*%
%ADD56C,0.01620*%
%ADD57C,0.01990*%
%ADD58C,0.02460*%
%ADD59C,0.03050*%
%ADD60C,0.03790*%
%ADD61C,0.16350*%
%ADD62C,0.08470*%
%ADD63C,0.12400*%
G36*
X0447500Y0292500D02*
Y0107500D01*
X0442500Y0102500D01*
X0107500D01*
X0102500Y0107500D01*
Y0292500D01*
X0107500Y0297500D01*
X0442500D01*
X0447500Y0292500D01*
D02*
G37*
%LPC*%
G36*
X0180669Y0116989D02*
X0179973Y0116850D01*
X0179383Y0116456D01*
X0178989Y0115866D01*
X0178850Y0115169D01*
X0178989Y0114473D01*
X0179383Y0113883D01*
X0179973Y0113489D01*
X0180669Y0113350D01*
X0181366Y0113489D01*
X0181956Y0113883D01*
X0182350Y0114473D01*
X0182489Y0115169D01*
X0182350Y0115866D01*
X0181956Y0116456D01*
X0181366Y0116850D01*
X0180669Y0116989D01*
D02*
G37*
G36*
X0313000Y0114473D02*
Y0110500D01*
X0316973D01*
X0316884Y0111175D01*
X0316431Y0112269D01*
X0315709Y0113209D01*
X0314769Y0113931D01*
X0313675Y0114384D01*
X0313000Y0114473D01*
D02*
G37*
G36*
X0185000Y0116989D02*
X0184304Y0116850D01*
X0183714Y0116456D01*
X0183319Y0115866D01*
X0183181Y0115169D01*
X0183319Y0114473D01*
X0183714Y0113883D01*
X0184304Y0113489D01*
X0185000Y0113350D01*
X0185696Y0113489D01*
X0186286Y0113883D01*
X0186681Y0114473D01*
X0186819Y0115169D01*
X0186681Y0115866D01*
X0186286Y0116456D01*
X0185696Y0116850D01*
X0185000Y0116989D01*
D02*
G37*
G36*
X0239839Y0119852D02*
X0239162Y0119763D01*
X0238532Y0119501D01*
X0237991Y0119086D01*
X0237576Y0118545D01*
X0237314Y0117914D01*
X0237225Y0117238D01*
X0237314Y0116561D01*
X0237576Y0115931D01*
X0237991Y0115390D01*
X0238532Y0114974D01*
X0239162Y0114713D01*
X0239839Y0114624D01*
X0240515Y0114713D01*
X0241146Y0114974D01*
X0241687Y0115390D01*
X0242103Y0115931D01*
X0242364Y0116561D01*
X0242453Y0117238D01*
X0242364Y0117914D01*
X0242103Y0118545D01*
X0241687Y0119086D01*
X0241146Y0119501D01*
X0240515Y0119763D01*
X0239839Y0119852D01*
D02*
G37*
G36*
X0189331Y0116989D02*
X0188635Y0116850D01*
X0188044Y0116456D01*
X0187650Y0115866D01*
X0187512Y0115169D01*
X0187650Y0114473D01*
X0188044Y0113883D01*
X0188635Y0113489D01*
X0189331Y0113350D01*
X0190027Y0113489D01*
X0190617Y0113883D01*
X0191011Y0114473D01*
X0191150Y0115169D01*
X0191011Y0115866D01*
X0190617Y0116456D01*
X0190027Y0116850D01*
X0189331Y0116989D01*
D02*
G37*
G36*
X0440500Y0109950D02*
Y0108000D01*
X0442450D01*
X0442355Y0108475D01*
X0441802Y0109302D01*
X0440976Y0109855D01*
X0440500Y0109950D01*
D02*
G37*
G36*
X0439500D02*
X0439024Y0109855D01*
X0438198Y0109302D01*
X0437645Y0108475D01*
X0437550Y0108000D01*
X0439500D01*
Y0109950D01*
D02*
G37*
G36*
X0246000Y0110450D02*
X0245525Y0110355D01*
X0244698Y0109802D01*
X0244145Y0108976D01*
X0244051Y0108500D01*
X0246000D01*
Y0110450D01*
D02*
G37*
G36*
X0312000Y0114473D02*
X0311325Y0114384D01*
X0310231Y0113931D01*
X0309291Y0113209D01*
X0308569Y0112269D01*
X0308116Y0111175D01*
X0308027Y0110500D01*
X0312000D01*
Y0114473D01*
D02*
G37*
G36*
X0247000Y0110450D02*
Y0108500D01*
X0248950D01*
X0248855Y0108976D01*
X0248302Y0109802D01*
X0247476Y0110355D01*
X0247000Y0110450D01*
D02*
G37*
G36*
X0344500Y0120949D02*
X0344024Y0120855D01*
X0343198Y0120302D01*
X0342645Y0119475D01*
X0342550Y0119000D01*
X0344500D01*
Y0120949D01*
D02*
G37*
G36*
X0189331Y0121319D02*
X0188635Y0121181D01*
X0188044Y0120786D01*
X0187650Y0120196D01*
X0187512Y0119500D01*
X0187650Y0118804D01*
X0188044Y0118214D01*
X0188635Y0117819D01*
X0189331Y0117681D01*
X0190027Y0117819D01*
X0190617Y0118214D01*
X0191011Y0118804D01*
X0191150Y0119500D01*
X0191011Y0120196D01*
X0190617Y0120786D01*
X0190027Y0121181D01*
X0189331Y0121319D01*
D02*
G37*
G36*
X0345500Y0120949D02*
Y0119000D01*
X0347449D01*
X0347355Y0119475D01*
X0346802Y0120302D01*
X0345975Y0120855D01*
X0345500Y0120949D01*
D02*
G37*
G36*
X0185000Y0125650D02*
X0184304Y0125511D01*
X0183714Y0125117D01*
X0183319Y0124527D01*
X0183181Y0123831D01*
X0183319Y0123135D01*
X0183714Y0122544D01*
X0184304Y0122150D01*
X0185000Y0122011D01*
X0185696Y0122150D01*
X0186286Y0122544D01*
X0186681Y0123135D01*
X0186819Y0123831D01*
X0186681Y0124527D01*
X0186286Y0125117D01*
X0185696Y0125511D01*
X0185000Y0125650D01*
D02*
G37*
G36*
X0180669D02*
X0179973Y0125511D01*
X0179383Y0125117D01*
X0178989Y0124527D01*
X0178850Y0123831D01*
X0178989Y0123135D01*
X0179383Y0122544D01*
X0179973Y0122150D01*
X0180669Y0122011D01*
X0181366Y0122150D01*
X0181956Y0122544D01*
X0182350Y0123135D01*
X0182489Y0123831D01*
X0182350Y0124527D01*
X0181956Y0125117D01*
X0181366Y0125511D01*
X0180669Y0125650D01*
D02*
G37*
G36*
X0344500Y0118000D02*
X0342550D01*
X0342645Y0117525D01*
X0343198Y0116698D01*
X0344024Y0116145D01*
X0344500Y0116051D01*
Y0118000D01*
D02*
G37*
G36*
X0257161Y0119852D02*
X0256485Y0119763D01*
X0255854Y0119501D01*
X0255313Y0119086D01*
X0254897Y0118545D01*
X0254636Y0117914D01*
X0254547Y0117238D01*
X0254636Y0116561D01*
X0254897Y0115931D01*
X0255313Y0115390D01*
X0255854Y0114974D01*
X0256485Y0114713D01*
X0257161Y0114624D01*
X0257838Y0114713D01*
X0258468Y0114974D01*
X0259009Y0115390D01*
X0259424Y0115931D01*
X0259686Y0116561D01*
X0259775Y0117238D01*
X0259686Y0117914D01*
X0259424Y0118545D01*
X0259009Y0119086D01*
X0258468Y0119501D01*
X0257838Y0119763D01*
X0257161Y0119852D01*
D02*
G37*
G36*
X0347449Y0118000D02*
X0345500D01*
Y0116051D01*
X0345975Y0116145D01*
X0346802Y0116698D01*
X0347355Y0117525D01*
X0347449Y0118000D01*
D02*
G37*
G36*
X0185000Y0121319D02*
X0184304Y0121181D01*
X0183714Y0120786D01*
X0183319Y0120196D01*
X0183181Y0119500D01*
X0183319Y0118804D01*
X0183714Y0118214D01*
X0184304Y0117819D01*
X0185000Y0117681D01*
X0185696Y0117819D01*
X0186286Y0118214D01*
X0186681Y0118804D01*
X0186819Y0119500D01*
X0186681Y0120196D01*
X0186286Y0120786D01*
X0185696Y0121181D01*
X0185000Y0121319D01*
D02*
G37*
G36*
X0180669D02*
X0179973Y0121181D01*
X0179383Y0120786D01*
X0178989Y0120196D01*
X0178850Y0119500D01*
X0178989Y0118804D01*
X0179383Y0118214D01*
X0179973Y0117819D01*
X0180669Y0117681D01*
X0181366Y0117819D01*
X0181956Y0118214D01*
X0182350Y0118804D01*
X0182489Y0119500D01*
X0182350Y0120196D01*
X0181956Y0120786D01*
X0181366Y0121181D01*
X0180669Y0121319D01*
D02*
G37*
G36*
X0292500Y0114337D02*
X0291377Y0114189D01*
X0290331Y0113756D01*
X0289433Y0113067D01*
X0288744Y0112169D01*
X0288311Y0111123D01*
X0288163Y0110000D01*
X0288311Y0108878D01*
X0288744Y0107831D01*
X0289433Y0106933D01*
X0290331Y0106244D01*
X0291377Y0105811D01*
X0292500Y0105663D01*
X0293622Y0105811D01*
X0294669Y0106244D01*
X0295567Y0106933D01*
X0296256Y0107831D01*
X0296689Y0108878D01*
X0296837Y0110000D01*
X0296689Y0111123D01*
X0296256Y0112169D01*
X0295567Y0113067D01*
X0294669Y0113756D01*
X0293622Y0114189D01*
X0292500Y0114337D01*
D02*
G37*
G36*
X0248950Y0107500D02*
X0247000D01*
Y0105551D01*
X0247476Y0105645D01*
X0248302Y0106198D01*
X0248855Y0107025D01*
X0248950Y0107500D01*
D02*
G37*
G36*
X0302500Y0114337D02*
X0301378Y0114189D01*
X0300331Y0113756D01*
X0299433Y0113067D01*
X0298744Y0112169D01*
X0298311Y0111123D01*
X0298163Y0110000D01*
X0298311Y0108878D01*
X0298744Y0107831D01*
X0299433Y0106933D01*
X0300331Y0106244D01*
X0301378Y0105811D01*
X0302500Y0105663D01*
X0303623Y0105811D01*
X0304669Y0106244D01*
X0305567Y0106933D01*
X0306256Y0107831D01*
X0306689Y0108878D01*
X0306837Y0110000D01*
X0306689Y0111123D01*
X0306256Y0112169D01*
X0305567Y0113067D01*
X0304669Y0113756D01*
X0303623Y0114189D01*
X0302500Y0114337D01*
D02*
G37*
G36*
X0332500D02*
X0331378Y0114189D01*
X0330331Y0113756D01*
X0329433Y0113067D01*
X0328744Y0112169D01*
X0328311Y0111123D01*
X0328163Y0110000D01*
X0328311Y0108878D01*
X0328744Y0107831D01*
X0329433Y0106933D01*
X0330331Y0106244D01*
X0331378Y0105811D01*
X0332500Y0105663D01*
X0333623Y0105811D01*
X0334669Y0106244D01*
X0335567Y0106933D01*
X0336256Y0107831D01*
X0336689Y0108878D01*
X0336837Y0110000D01*
X0336689Y0111123D01*
X0336256Y0112169D01*
X0335567Y0113067D01*
X0334669Y0113756D01*
X0333623Y0114189D01*
X0332500Y0114337D01*
D02*
G37*
G36*
X0322500D02*
X0321377Y0114189D01*
X0320331Y0113756D01*
X0319433Y0113067D01*
X0318744Y0112169D01*
X0318311Y0111123D01*
X0318163Y0110000D01*
X0318311Y0108878D01*
X0318744Y0107831D01*
X0319433Y0106933D01*
X0320331Y0106244D01*
X0321377Y0105811D01*
X0322500Y0105663D01*
X0323622Y0105811D01*
X0324669Y0106244D01*
X0325567Y0106933D01*
X0326256Y0107831D01*
X0326689Y0108878D01*
X0326837Y0110000D01*
X0326689Y0111123D01*
X0326256Y0112169D01*
X0325567Y0113067D01*
X0324669Y0113756D01*
X0323622Y0114189D01*
X0322500Y0114337D01*
D02*
G37*
G36*
X0442450Y0107000D02*
X0440500D01*
Y0105051D01*
X0440976Y0105145D01*
X0441802Y0105698D01*
X0442355Y0106525D01*
X0442450Y0107000D01*
D02*
G37*
G36*
X0439500D02*
X0437550D01*
X0437645Y0106525D01*
X0438198Y0105698D01*
X0439024Y0105145D01*
X0439500Y0105051D01*
Y0107000D01*
D02*
G37*
G36*
X0312000Y0109500D02*
X0308027D01*
X0308116Y0108825D01*
X0308569Y0107731D01*
X0309291Y0106791D01*
X0310231Y0106069D01*
X0311325Y0105616D01*
X0312000Y0105527D01*
Y0109500D01*
D02*
G37*
G36*
X0246000Y0107500D02*
X0244051D01*
X0244145Y0107025D01*
X0244698Y0106198D01*
X0245525Y0105645D01*
X0246000Y0105551D01*
Y0107500D01*
D02*
G37*
G36*
X0316973Y0109500D02*
X0313000D01*
Y0105527D01*
X0313675Y0105616D01*
X0314769Y0106069D01*
X0315709Y0106791D01*
X0316431Y0107731D01*
X0316884Y0108825D01*
X0316973Y0109500D01*
D02*
G37*
G36*
X0402500Y0114337D02*
X0401377Y0114189D01*
X0400331Y0113756D01*
X0399433Y0113067D01*
X0398744Y0112169D01*
X0398311Y0111123D01*
X0398163Y0110000D01*
X0398311Y0108878D01*
X0398744Y0107831D01*
X0399433Y0106933D01*
X0400331Y0106244D01*
X0401377Y0105811D01*
X0402500Y0105663D01*
X0403622Y0105811D01*
X0404669Y0106244D01*
X0405567Y0106933D01*
X0406256Y0107831D01*
X0406689Y0108878D01*
X0406837Y0110000D01*
X0406689Y0111123D01*
X0406256Y0112169D01*
X0405567Y0113067D01*
X0404669Y0113756D01*
X0403622Y0114189D01*
X0402500Y0114337D01*
D02*
G37*
G36*
X0392500D02*
X0391377Y0114189D01*
X0390331Y0113756D01*
X0389433Y0113067D01*
X0388744Y0112169D01*
X0388311Y0111123D01*
X0388163Y0110000D01*
X0388311Y0108878D01*
X0388744Y0107831D01*
X0389433Y0106933D01*
X0390331Y0106244D01*
X0391377Y0105811D01*
X0392500Y0105663D01*
X0393622Y0105811D01*
X0394669Y0106244D01*
X0395567Y0106933D01*
X0396256Y0107831D01*
X0396689Y0108878D01*
X0396837Y0110000D01*
X0396689Y0111123D01*
X0396256Y0112169D01*
X0395567Y0113067D01*
X0394669Y0113756D01*
X0393622Y0114189D01*
X0392500Y0114337D01*
D02*
G37*
G36*
X0412500D02*
X0411377Y0114189D01*
X0410331Y0113756D01*
X0409433Y0113067D01*
X0408744Y0112169D01*
X0408311Y0111123D01*
X0408163Y0110000D01*
X0408311Y0108878D01*
X0408744Y0107831D01*
X0409433Y0106933D01*
X0410331Y0106244D01*
X0411377Y0105811D01*
X0412500Y0105663D01*
X0413623Y0105811D01*
X0414669Y0106244D01*
X0415567Y0106933D01*
X0416256Y0107831D01*
X0416689Y0108878D01*
X0416837Y0110000D01*
X0416689Y0111123D01*
X0416256Y0112169D01*
X0415567Y0113067D01*
X0414669Y0113756D01*
X0413623Y0114189D01*
X0412500Y0114337D01*
D02*
G37*
G36*
X0286800Y0114300D02*
X0278200D01*
Y0105700D01*
X0286800D01*
Y0114300D01*
D02*
G37*
G36*
X0422500Y0114337D02*
X0421378Y0114189D01*
X0420331Y0113756D01*
X0419433Y0113067D01*
X0418744Y0112169D01*
X0418311Y0111123D01*
X0418163Y0110000D01*
X0418311Y0108878D01*
X0418744Y0107831D01*
X0419433Y0106933D01*
X0420331Y0106244D01*
X0421378Y0105811D01*
X0422500Y0105663D01*
X0423623Y0105811D01*
X0424669Y0106244D01*
X0425567Y0106933D01*
X0426256Y0107831D01*
X0426689Y0108878D01*
X0426837Y0110000D01*
X0426689Y0111123D01*
X0426256Y0112169D01*
X0425567Y0113067D01*
X0424669Y0113756D01*
X0423623Y0114189D01*
X0422500Y0114337D01*
D02*
G37*
G36*
X0352500D02*
X0351378Y0114189D01*
X0350331Y0113756D01*
X0349433Y0113067D01*
X0348744Y0112169D01*
X0348311Y0111123D01*
X0348163Y0110000D01*
X0348311Y0108878D01*
X0348744Y0107831D01*
X0349433Y0106933D01*
X0350331Y0106244D01*
X0351378Y0105811D01*
X0352500Y0105663D01*
X0353623Y0105811D01*
X0354669Y0106244D01*
X0355567Y0106933D01*
X0356256Y0107831D01*
X0356689Y0108878D01*
X0356837Y0110000D01*
X0356689Y0111123D01*
X0356256Y0112169D01*
X0355567Y0113067D01*
X0354669Y0113756D01*
X0353623Y0114189D01*
X0352500Y0114337D01*
D02*
G37*
G36*
X0342500D02*
X0341377Y0114189D01*
X0340331Y0113756D01*
X0339433Y0113067D01*
X0338744Y0112169D01*
X0338311Y0111123D01*
X0338163Y0110000D01*
X0338311Y0108878D01*
X0338744Y0107831D01*
X0339433Y0106933D01*
X0340331Y0106244D01*
X0341377Y0105811D01*
X0342500Y0105663D01*
X0343622Y0105811D01*
X0344669Y0106244D01*
X0345567Y0106933D01*
X0346256Y0107831D01*
X0346689Y0108878D01*
X0346837Y0110000D01*
X0346689Y0111123D01*
X0346256Y0112169D01*
X0345567Y0113067D01*
X0344669Y0113756D01*
X0343622Y0114189D01*
X0342500Y0114337D01*
D02*
G37*
G36*
X0362500D02*
X0361378Y0114189D01*
X0360331Y0113756D01*
X0359433Y0113067D01*
X0358744Y0112169D01*
X0358311Y0111123D01*
X0358163Y0110000D01*
X0358311Y0108878D01*
X0358744Y0107831D01*
X0359433Y0106933D01*
X0360331Y0106244D01*
X0361378Y0105811D01*
X0362500Y0105663D01*
X0363622Y0105811D01*
X0364669Y0106244D01*
X0365567Y0106933D01*
X0366256Y0107831D01*
X0366689Y0108878D01*
X0366837Y0110000D01*
X0366689Y0111123D01*
X0366256Y0112169D01*
X0365567Y0113067D01*
X0364669Y0113756D01*
X0363622Y0114189D01*
X0362500Y0114337D01*
D02*
G37*
G36*
X0382500D02*
X0381378Y0114189D01*
X0380331Y0113756D01*
X0379433Y0113067D01*
X0378744Y0112169D01*
X0378311Y0111123D01*
X0378163Y0110000D01*
X0378311Y0108878D01*
X0378744Y0107831D01*
X0379433Y0106933D01*
X0380331Y0106244D01*
X0381378Y0105811D01*
X0382500Y0105663D01*
X0383623Y0105811D01*
X0384669Y0106244D01*
X0385567Y0106933D01*
X0386256Y0107831D01*
X0386689Y0108878D01*
X0386837Y0110000D01*
X0386689Y0111123D01*
X0386256Y0112169D01*
X0385567Y0113067D01*
X0384669Y0113756D01*
X0383623Y0114189D01*
X0382500Y0114337D01*
D02*
G37*
G36*
X0372500D02*
X0371377Y0114189D01*
X0370331Y0113756D01*
X0369433Y0113067D01*
X0368744Y0112169D01*
X0368311Y0111123D01*
X0368163Y0110000D01*
X0368311Y0108878D01*
X0368744Y0107831D01*
X0369433Y0106933D01*
X0370331Y0106244D01*
X0371377Y0105811D01*
X0372500Y0105663D01*
X0373622Y0105811D01*
X0374669Y0106244D01*
X0375567Y0106933D01*
X0376256Y0107831D01*
X0376689Y0108878D01*
X0376837Y0110000D01*
X0376689Y0111123D01*
X0376256Y0112169D01*
X0375567Y0113067D01*
X0374669Y0113756D01*
X0373622Y0114189D01*
X0372500Y0114337D01*
D02*
G37*
G36*
X0133500Y0290018D02*
X0131741Y0289845D01*
X0130049Y0289332D01*
X0128490Y0288498D01*
X0127123Y0287377D01*
X0126001Y0286010D01*
X0125168Y0284451D01*
X0124655Y0282759D01*
X0124482Y0281000D01*
X0124655Y0279241D01*
X0125168Y0277549D01*
X0126001Y0275990D01*
X0127123Y0274623D01*
X0128490Y0273501D01*
X0130049Y0272668D01*
X0131741Y0272155D01*
X0133500Y0271982D01*
X0135259Y0272155D01*
X0136951Y0272668D01*
X0138510Y0273501D01*
X0139877Y0274623D01*
X0140999Y0275990D01*
X0141832Y0277549D01*
X0142345Y0279241D01*
X0142518Y0281000D01*
X0142345Y0282759D01*
X0141832Y0284451D01*
X0140999Y0286010D01*
X0139877Y0287377D01*
X0138510Y0288498D01*
X0136951Y0289332D01*
X0135259Y0289845D01*
X0133500Y0290018D01*
D02*
G37*
G36*
X0169500Y0286034D02*
X0168128Y0285899D01*
X0166808Y0285498D01*
X0165592Y0284848D01*
X0164526Y0283974D01*
X0163652Y0282908D01*
X0163002Y0281692D01*
X0162601Y0280372D01*
X0162466Y0279000D01*
X0162601Y0277628D01*
X0163002Y0276308D01*
X0163652Y0275092D01*
X0164526Y0274026D01*
X0165592Y0273151D01*
X0166808Y0272501D01*
X0168128Y0272101D01*
X0169500Y0271966D01*
X0170872Y0272101D01*
X0172192Y0272501D01*
X0173408Y0273151D01*
X0174474Y0274026D01*
X0175348Y0275092D01*
X0175998Y0276308D01*
X0176399Y0277628D01*
X0176534Y0279000D01*
X0176399Y0280372D01*
X0175998Y0281692D01*
X0175348Y0282908D01*
X0174474Y0283974D01*
X0173408Y0284848D01*
X0172192Y0285498D01*
X0170872Y0285899D01*
X0169500Y0286034D01*
D02*
G37*
G36*
X0404000Y0280000D02*
X0402050D01*
X0402145Y0279524D01*
X0402698Y0278698D01*
X0403524Y0278145D01*
X0404000Y0278050D01*
Y0280000D01*
D02*
G37*
G36*
X0107500Y0285940D02*
X0106739Y0285840D01*
X0106030Y0285546D01*
X0105421Y0285079D01*
X0104954Y0284470D01*
X0104660Y0283761D01*
X0104560Y0283000D01*
X0104660Y0282239D01*
X0104954Y0281530D01*
X0105421Y0280921D01*
X0106030Y0280454D01*
X0106739Y0280160D01*
X0107500Y0280060D01*
X0108261Y0280160D01*
X0108970Y0280454D01*
X0109579Y0280921D01*
X0110046Y0281530D01*
X0110340Y0282239D01*
X0110440Y0283000D01*
X0110340Y0283761D01*
X0110046Y0284470D01*
X0109579Y0285079D01*
X0108970Y0285546D01*
X0108261Y0285840D01*
X0107500Y0285940D01*
D02*
G37*
G36*
X0406950Y0280000D02*
X0405000D01*
Y0278050D01*
X0405476Y0278145D01*
X0406302Y0278698D01*
X0406855Y0279524D01*
X0406950Y0280000D01*
D02*
G37*
G36*
X0107500Y0259871D02*
X0106593Y0259690D01*
X0105824Y0259176D01*
X0105310Y0258407D01*
X0105129Y0257500D01*
X0105310Y0256593D01*
X0105824Y0255824D01*
X0106593Y0255310D01*
X0107500Y0255129D01*
X0108407Y0255310D01*
X0109176Y0255824D01*
X0109690Y0256593D01*
X0109871Y0257500D01*
X0109690Y0258407D01*
X0109176Y0259176D01*
X0108407Y0259690D01*
X0107500Y0259871D01*
D02*
G37*
G36*
Y0252213D02*
X0106653Y0252044D01*
X0105936Y0251565D01*
X0105456Y0250847D01*
X0105288Y0250000D01*
X0105456Y0249153D01*
X0105936Y0248435D01*
X0106653Y0247956D01*
X0107500Y0247787D01*
X0108347Y0247956D01*
X0109064Y0248435D01*
X0109544Y0249153D01*
X0109713Y0250000D01*
X0109544Y0250847D01*
X0109064Y0251565D01*
X0108347Y0252044D01*
X0107500Y0252213D01*
D02*
G37*
G36*
Y0267549D02*
X0106525Y0267355D01*
X0105698Y0266802D01*
X0105145Y0265975D01*
X0104951Y0265000D01*
X0105145Y0264024D01*
X0105698Y0263198D01*
X0106525Y0262645D01*
X0107500Y0262451D01*
X0108475Y0262645D01*
X0109302Y0263198D01*
X0109855Y0264024D01*
X0110049Y0265000D01*
X0109855Y0265975D01*
X0109302Y0266802D01*
X0108475Y0267355D01*
X0107500Y0267549D01*
D02*
G37*
G36*
X0200000Y0282079D02*
X0198686Y0281905D01*
X0197461Y0281398D01*
X0196409Y0280591D01*
X0195602Y0279539D01*
X0195095Y0278314D01*
X0194922Y0277000D01*
X0195095Y0275686D01*
X0195602Y0274461D01*
X0196409Y0273409D01*
X0197461Y0272602D01*
X0198686Y0272095D01*
X0200000Y0271921D01*
X0201314Y0272095D01*
X0202539Y0272602D01*
X0203591Y0273409D01*
X0204398Y0274461D01*
X0204905Y0275686D01*
X0205079Y0277000D01*
X0204905Y0278314D01*
X0204398Y0279539D01*
X0203591Y0280591D01*
X0202539Y0281398D01*
X0201314Y0281905D01*
X0200000Y0282079D01*
D02*
G37*
G36*
X0107500Y0276218D02*
X0106797Y0276126D01*
X0106141Y0275854D01*
X0105578Y0275422D01*
X0105146Y0274859D01*
X0104874Y0274203D01*
X0104782Y0273500D01*
X0104874Y0272797D01*
X0105146Y0272141D01*
X0105578Y0271578D01*
X0106141Y0271146D01*
X0106797Y0270874D01*
X0107500Y0270782D01*
X0108203Y0270874D01*
X0108859Y0271146D01*
X0109422Y0271578D01*
X0109854Y0272141D01*
X0110126Y0272797D01*
X0110218Y0273500D01*
X0110126Y0274203D01*
X0109854Y0274859D01*
X0109422Y0275422D01*
X0108859Y0275854D01*
X0108203Y0276126D01*
X0107500Y0276218D01*
D02*
G37*
G36*
X0422500Y0294337D02*
X0421378Y0294189D01*
X0420331Y0293756D01*
X0419433Y0293067D01*
X0418744Y0292169D01*
X0418311Y0291123D01*
X0418163Y0290000D01*
X0418311Y0288878D01*
X0418744Y0287831D01*
X0419433Y0286933D01*
X0420331Y0286244D01*
X0421378Y0285811D01*
X0422500Y0285663D01*
X0423623Y0285811D01*
X0424669Y0286244D01*
X0425567Y0286933D01*
X0426256Y0287831D01*
X0426689Y0288878D01*
X0426837Y0290000D01*
X0426689Y0291123D01*
X0426256Y0292169D01*
X0425567Y0293067D01*
X0424669Y0293756D01*
X0423623Y0294189D01*
X0422500Y0294337D01*
D02*
G37*
G36*
X0296973Y0289500D02*
X0293000D01*
Y0285527D01*
X0293675Y0285616D01*
X0294769Y0286069D01*
X0295709Y0286791D01*
X0296431Y0287731D01*
X0296884Y0288825D01*
X0296973Y0289500D01*
D02*
G37*
G36*
X0265500Y0289450D02*
X0265024Y0289355D01*
X0264198Y0288802D01*
X0263645Y0287976D01*
X0263550Y0287500D01*
X0265500D01*
Y0289450D01*
D02*
G37*
G36*
X0407000Y0296826D02*
X0318000D01*
X0317493Y0296725D01*
X0317063Y0296437D01*
X0314466Y0293840D01*
X0313622Y0294189D01*
X0312500Y0294337D01*
X0311378Y0294189D01*
X0310534Y0293840D01*
X0307937Y0296437D01*
X0307507Y0296725D01*
X0307000Y0296826D01*
X0278000D01*
X0277493Y0296725D01*
X0277063Y0296437D01*
X0274063Y0293437D01*
X0273775Y0293007D01*
X0273675Y0292500D01*
Y0288880D01*
X0273342Y0288658D01*
X0272833Y0287897D01*
X0272655Y0287000D01*
X0272833Y0286103D01*
X0273342Y0285342D01*
X0274103Y0284833D01*
X0275000Y0284655D01*
X0275897Y0284833D01*
X0276658Y0285342D01*
X0277167Y0286103D01*
X0277345Y0287000D01*
X0277167Y0287897D01*
X0276658Y0288658D01*
X0276325Y0288880D01*
Y0291951D01*
X0277738Y0293364D01*
X0278200Y0293172D01*
Y0285700D01*
X0286800D01*
Y0294175D01*
X0289727D01*
X0289897Y0293674D01*
X0289291Y0293209D01*
X0288569Y0292269D01*
X0288116Y0291175D01*
X0288027Y0290500D01*
X0296973D01*
X0296884Y0291175D01*
X0296431Y0292269D01*
X0295709Y0293209D01*
X0295103Y0293674D01*
X0295273Y0294175D01*
X0300109D01*
X0300225Y0293674D01*
X0299433Y0293067D01*
X0298744Y0292169D01*
X0298311Y0291123D01*
X0298163Y0290000D01*
X0298311Y0288878D01*
X0298744Y0287831D01*
X0299433Y0286933D01*
X0300331Y0286244D01*
X0301378Y0285811D01*
X0302500Y0285663D01*
X0303623Y0285811D01*
X0304669Y0286244D01*
X0305567Y0286933D01*
X0306256Y0287831D01*
X0306689Y0288878D01*
X0306837Y0290000D01*
X0306689Y0291123D01*
X0306256Y0292169D01*
X0305567Y0293067D01*
X0304775Y0293674D01*
X0304891Y0294175D01*
X0306451D01*
X0308660Y0291966D01*
X0308311Y0291123D01*
X0308163Y0290000D01*
X0308311Y0288878D01*
X0308744Y0287831D01*
X0309433Y0286933D01*
X0310331Y0286244D01*
X0311378Y0285811D01*
X0312500Y0285663D01*
X0313622Y0285811D01*
X0314669Y0286244D01*
X0315567Y0286933D01*
X0316256Y0287831D01*
X0316689Y0288878D01*
X0316837Y0290000D01*
X0316689Y0291123D01*
X0316340Y0291966D01*
X0318549Y0294175D01*
X0320109D01*
X0320225Y0293674D01*
X0319433Y0293067D01*
X0318744Y0292169D01*
X0318311Y0291123D01*
X0318163Y0290000D01*
X0318311Y0288878D01*
X0318744Y0287831D01*
X0319433Y0286933D01*
X0320331Y0286244D01*
X0321377Y0285811D01*
X0322500Y0285663D01*
X0323622Y0285811D01*
X0324669Y0286244D01*
X0325567Y0286933D01*
X0326256Y0287831D01*
X0326689Y0288878D01*
X0326837Y0290000D01*
X0326689Y0291123D01*
X0326256Y0292169D01*
X0325567Y0293067D01*
X0324775Y0293674D01*
X0324891Y0294175D01*
X0330108D01*
X0330225Y0293674D01*
X0329433Y0293067D01*
X0328744Y0292169D01*
X0328311Y0291123D01*
X0328163Y0290000D01*
X0328311Y0288878D01*
X0328744Y0287831D01*
X0329433Y0286933D01*
X0330331Y0286244D01*
X0331378Y0285811D01*
X0332500Y0285663D01*
X0333623Y0285811D01*
X0334669Y0286244D01*
X0335567Y0286933D01*
X0336256Y0287831D01*
X0336689Y0288878D01*
X0336837Y0290000D01*
X0336689Y0291123D01*
X0336256Y0292169D01*
X0335567Y0293067D01*
X0334775Y0293674D01*
X0334892Y0294175D01*
X0340108D01*
X0340225Y0293674D01*
X0339433Y0293067D01*
X0338744Y0292169D01*
X0338311Y0291123D01*
X0338163Y0290000D01*
X0338311Y0288878D01*
X0338744Y0287831D01*
X0339433Y0286933D01*
X0340331Y0286244D01*
X0341377Y0285811D01*
X0342500Y0285663D01*
X0343622Y0285811D01*
X0344669Y0286244D01*
X0345567Y0286933D01*
X0346256Y0287831D01*
X0346689Y0288878D01*
X0346837Y0290000D01*
X0346689Y0291123D01*
X0346256Y0292169D01*
X0345567Y0293067D01*
X0344775Y0293674D01*
X0344892Y0294175D01*
X0350109D01*
X0350225Y0293674D01*
X0349433Y0293067D01*
X0348744Y0292169D01*
X0348311Y0291123D01*
X0348163Y0290000D01*
X0348311Y0288878D01*
X0348744Y0287831D01*
X0349433Y0286933D01*
X0350331Y0286244D01*
X0351378Y0285811D01*
X0352500Y0285663D01*
X0353623Y0285811D01*
X0354669Y0286244D01*
X0355567Y0286933D01*
X0356256Y0287831D01*
X0356689Y0288878D01*
X0356837Y0290000D01*
X0356689Y0291123D01*
X0356256Y0292169D01*
X0355567Y0293067D01*
X0354775Y0293674D01*
X0354891Y0294175D01*
X0360108D01*
X0360225Y0293674D01*
X0359433Y0293067D01*
X0358744Y0292169D01*
X0358311Y0291123D01*
X0358163Y0290000D01*
X0358311Y0288878D01*
X0358744Y0287831D01*
X0359433Y0286933D01*
X0360331Y0286244D01*
X0361378Y0285811D01*
X0362500Y0285663D01*
X0363622Y0285811D01*
X0364669Y0286244D01*
X0365567Y0286933D01*
X0366256Y0287831D01*
X0366689Y0288878D01*
X0366837Y0290000D01*
X0366689Y0291123D01*
X0366256Y0292169D01*
X0365567Y0293067D01*
X0364775Y0293674D01*
X0364892Y0294175D01*
X0370109D01*
X0370225Y0293674D01*
X0369433Y0293067D01*
X0368744Y0292169D01*
X0368311Y0291123D01*
X0368163Y0290000D01*
X0368311Y0288878D01*
X0368744Y0287831D01*
X0369433Y0286933D01*
X0370331Y0286244D01*
X0371377Y0285811D01*
X0372500Y0285663D01*
X0373622Y0285811D01*
X0374669Y0286244D01*
X0375567Y0286933D01*
X0376256Y0287831D01*
X0376689Y0288878D01*
X0376837Y0290000D01*
X0376689Y0291123D01*
X0376256Y0292169D01*
X0375567Y0293067D01*
X0374775Y0293674D01*
X0374891Y0294175D01*
X0380108D01*
X0380225Y0293674D01*
X0379433Y0293067D01*
X0378744Y0292169D01*
X0378311Y0291123D01*
X0378163Y0290000D01*
X0378311Y0288878D01*
X0378744Y0287831D01*
X0379433Y0286933D01*
X0380331Y0286244D01*
X0381378Y0285811D01*
X0382500Y0285663D01*
X0383623Y0285811D01*
X0384669Y0286244D01*
X0385567Y0286933D01*
X0386256Y0287831D01*
X0386689Y0288878D01*
X0386837Y0290000D01*
X0386689Y0291123D01*
X0386256Y0292169D01*
X0385567Y0293067D01*
X0384775Y0293674D01*
X0384892Y0294175D01*
X0390108D01*
X0390225Y0293674D01*
X0389433Y0293067D01*
X0388744Y0292169D01*
X0388311Y0291123D01*
X0388163Y0290000D01*
X0388311Y0288878D01*
X0388744Y0287831D01*
X0389433Y0286933D01*
X0390331Y0286244D01*
X0391377Y0285811D01*
X0392500Y0285663D01*
X0393622Y0285811D01*
X0394669Y0286244D01*
X0395567Y0286933D01*
X0396256Y0287831D01*
X0396689Y0288878D01*
X0396837Y0290000D01*
X0396689Y0291123D01*
X0396256Y0292169D01*
X0395567Y0293067D01*
X0394775Y0293674D01*
X0394892Y0294175D01*
X0400108D01*
X0400225Y0293674D01*
X0399433Y0293067D01*
X0398744Y0292169D01*
X0398311Y0291123D01*
X0398163Y0290000D01*
X0398311Y0288878D01*
X0398744Y0287831D01*
X0399433Y0286933D01*
X0400331Y0286244D01*
X0401377Y0285811D01*
X0402500Y0285663D01*
X0403622Y0285811D01*
X0404669Y0286244D01*
X0405567Y0286933D01*
X0406256Y0287831D01*
X0406689Y0288878D01*
X0406837Y0290000D01*
X0406689Y0291123D01*
X0406256Y0292169D01*
X0405567Y0293067D01*
X0404775Y0293674D01*
X0404891Y0294175D01*
X0406451D01*
X0408660Y0291966D01*
X0408311Y0291123D01*
X0408163Y0290000D01*
X0408311Y0288878D01*
X0408744Y0287831D01*
X0409433Y0286933D01*
X0410331Y0286244D01*
X0411377Y0285811D01*
X0412500Y0285663D01*
X0413623Y0285811D01*
X0414669Y0286244D01*
X0415567Y0286933D01*
X0416256Y0287831D01*
X0416689Y0288878D01*
X0416837Y0290000D01*
X0416689Y0291123D01*
X0416256Y0292169D01*
X0415567Y0293067D01*
X0414669Y0293756D01*
X0413623Y0294189D01*
X0412500Y0294337D01*
X0411377Y0294189D01*
X0410534Y0293840D01*
X0407937Y0296437D01*
X0407507Y0296725D01*
X0407000Y0296826D01*
D02*
G37*
G36*
X0266500Y0289450D02*
Y0287500D01*
X0268449D01*
X0268355Y0287976D01*
X0267802Y0288802D01*
X0266975Y0289355D01*
X0266500Y0289450D01*
D02*
G37*
G36*
X0405000Y0282949D02*
Y0281000D01*
X0406950D01*
X0406855Y0281475D01*
X0406302Y0282302D01*
X0405476Y0282855D01*
X0405000Y0282949D01*
D02*
G37*
G36*
X0404000D02*
X0403524Y0282855D01*
X0402698Y0282302D01*
X0402145Y0281475D01*
X0402050Y0281000D01*
X0404000D01*
Y0282949D01*
D02*
G37*
G36*
X0265500Y0286500D02*
X0263550D01*
X0263645Y0286024D01*
X0264198Y0285198D01*
X0265024Y0284645D01*
X0265500Y0284550D01*
Y0286500D01*
D02*
G37*
G36*
X0292000Y0289500D02*
X0288027D01*
X0288116Y0288825D01*
X0288569Y0287731D01*
X0289291Y0286791D01*
X0290231Y0286069D01*
X0291325Y0285616D01*
X0292000Y0285527D01*
Y0289500D01*
D02*
G37*
G36*
X0268449Y0286500D02*
X0266500D01*
Y0284550D01*
X0266975Y0284645D01*
X0267802Y0285198D01*
X0268355Y0286024D01*
X0268449Y0286500D01*
D02*
G37*
G36*
X0107500Y0245570D02*
X0106708Y0245412D01*
X0106036Y0244964D01*
X0105588Y0244292D01*
X0105430Y0243500D01*
X0105588Y0242708D01*
X0106036Y0242037D01*
X0106708Y0241588D01*
X0107500Y0241430D01*
X0108292Y0241588D01*
X0108964Y0242037D01*
X0109412Y0242708D01*
X0109570Y0243500D01*
X0109412Y0244292D01*
X0108964Y0244964D01*
X0108292Y0245412D01*
X0107500Y0245570D01*
D02*
G37*
G36*
X0353000Y0148950D02*
Y0147000D01*
X0354949D01*
X0354855Y0147476D01*
X0354302Y0148302D01*
X0353475Y0148855D01*
X0353000Y0148950D01*
D02*
G37*
G36*
X0360000D02*
Y0146500D01*
X0359500D01*
Y0146000D01*
X0357050D01*
X0357145Y0145525D01*
X0357612Y0144825D01*
X0357423Y0144325D01*
X0354577D01*
X0354388Y0144825D01*
X0354855Y0145525D01*
X0354949Y0146000D01*
X0352500D01*
Y0146500D01*
X0352000D01*
Y0148950D01*
X0351524Y0148855D01*
X0350698Y0148302D01*
X0350157Y0147494D01*
X0349862Y0147436D01*
X0349630Y0147451D01*
X0349158Y0148158D01*
X0348397Y0148667D01*
X0347500Y0148845D01*
X0346603Y0148667D01*
X0345842Y0148158D01*
X0345333Y0147397D01*
X0345155Y0146500D01*
X0345333Y0145603D01*
X0345842Y0144842D01*
X0346603Y0144333D01*
X0347500Y0144155D01*
X0347892Y0144233D01*
X0350063Y0142063D01*
X0350493Y0141775D01*
X0351000Y0141674D01*
X0361000D01*
X0361507Y0141775D01*
X0361937Y0142063D01*
X0364107Y0144233D01*
X0364500Y0144155D01*
X0365397Y0144333D01*
X0366158Y0144842D01*
X0366667Y0145603D01*
X0366845Y0146500D01*
X0366667Y0147397D01*
X0366158Y0148158D01*
X0365397Y0148667D01*
X0364500Y0148845D01*
X0363603Y0148667D01*
X0362842Y0148158D01*
X0362369Y0147451D01*
X0362138Y0147436D01*
X0361843Y0147494D01*
X0361302Y0148302D01*
X0360475Y0148855D01*
X0360000Y0148950D01*
D02*
G37*
G36*
X0359000D02*
X0358524Y0148855D01*
X0357698Y0148302D01*
X0357145Y0147476D01*
X0357050Y0147000D01*
X0359000D01*
Y0148950D01*
D02*
G37*
G36*
X0426469Y0154500D02*
X0423000D01*
Y0151031D01*
X0423544Y0151103D01*
X0424517Y0151506D01*
X0425353Y0152147D01*
X0425994Y0152983D01*
X0426397Y0153956D01*
X0426469Y0154500D01*
D02*
G37*
G36*
X0422000D02*
X0418531D01*
X0418603Y0153956D01*
X0419006Y0152983D01*
X0419647Y0152147D01*
X0420483Y0151506D01*
X0421456Y0151103D01*
X0422000Y0151031D01*
Y0154500D01*
D02*
G37*
G36*
X0422500Y0138833D02*
X0421508Y0138702D01*
X0420584Y0138319D01*
X0419790Y0137710D01*
X0419181Y0136916D01*
X0418798Y0135992D01*
X0418667Y0135000D01*
X0418798Y0134008D01*
X0419181Y0133084D01*
X0419790Y0132290D01*
X0420584Y0131681D01*
X0421508Y0131298D01*
X0422500Y0131167D01*
X0423492Y0131298D01*
X0424416Y0131681D01*
X0425210Y0132290D01*
X0425819Y0133084D01*
X0426202Y0134008D01*
X0426333Y0135000D01*
X0426202Y0135992D01*
X0425819Y0136916D01*
X0425210Y0137710D01*
X0424416Y0138319D01*
X0423492Y0138702D01*
X0422500Y0138833D01*
D02*
G37*
G36*
X0189331Y0125650D02*
X0188635Y0125511D01*
X0188044Y0125117D01*
X0187650Y0124527D01*
X0187512Y0123831D01*
X0187650Y0123135D01*
X0188044Y0122544D01*
X0188635Y0122150D01*
X0189331Y0122011D01*
X0190027Y0122150D01*
X0190617Y0122544D01*
X0191011Y0123135D01*
X0191150Y0123831D01*
X0191011Y0124527D01*
X0190617Y0125117D01*
X0190027Y0125511D01*
X0189331Y0125650D01*
D02*
G37*
G36*
X0432500Y0138833D02*
X0431508Y0138702D01*
X0430584Y0138319D01*
X0429790Y0137710D01*
X0429181Y0136916D01*
X0428798Y0135992D01*
X0428667Y0135000D01*
X0428798Y0134008D01*
X0429181Y0133084D01*
X0429790Y0132290D01*
X0430584Y0131681D01*
X0431508Y0131298D01*
X0432500Y0131167D01*
X0433492Y0131298D01*
X0434416Y0131681D01*
X0435210Y0132290D01*
X0435819Y0133084D01*
X0436202Y0134008D01*
X0436333Y0135000D01*
X0436202Y0135992D01*
X0435819Y0136916D01*
X0435210Y0137710D01*
X0434416Y0138319D01*
X0433492Y0138702D01*
X0432500Y0138833D01*
D02*
G37*
G36*
Y0148833D02*
X0431508Y0148702D01*
X0430584Y0148319D01*
X0429790Y0147710D01*
X0429181Y0146916D01*
X0428798Y0145992D01*
X0428667Y0145000D01*
X0428798Y0144008D01*
X0429181Y0143084D01*
X0429790Y0142290D01*
X0430584Y0141681D01*
X0431508Y0141298D01*
X0432500Y0141167D01*
X0433492Y0141298D01*
X0434416Y0141681D01*
X0435210Y0142290D01*
X0435819Y0143084D01*
X0436202Y0144008D01*
X0436333Y0145000D01*
X0436202Y0145992D01*
X0435819Y0146916D01*
X0435210Y0147710D01*
X0434416Y0148319D01*
X0433492Y0148702D01*
X0432500Y0148833D01*
D02*
G37*
G36*
X0422500D02*
X0421508Y0148702D01*
X0420584Y0148319D01*
X0419790Y0147710D01*
X0419181Y0146916D01*
X0418798Y0145992D01*
X0418667Y0145000D01*
X0418798Y0144008D01*
X0419181Y0143084D01*
X0419790Y0142290D01*
X0420584Y0141681D01*
X0421508Y0141298D01*
X0422500Y0141167D01*
X0423492Y0141298D01*
X0424416Y0141681D01*
X0425210Y0142290D01*
X0425819Y0143084D01*
X0426202Y0144008D01*
X0426333Y0145000D01*
X0426202Y0145992D01*
X0425819Y0146916D01*
X0425210Y0147710D01*
X0424416Y0148319D01*
X0423492Y0148702D01*
X0422500Y0148833D01*
D02*
G37*
G36*
X0107500Y0222142D02*
X0106872Y0222017D01*
X0106339Y0221661D01*
X0105983Y0221128D01*
X0105859Y0220500D01*
X0105983Y0219872D01*
X0106339Y0219339D01*
X0106872Y0218983D01*
X0107500Y0218859D01*
X0108128Y0218983D01*
X0108661Y0219339D01*
X0109017Y0219872D01*
X0109142Y0220500D01*
X0109017Y0221128D01*
X0108661Y0221661D01*
X0108128Y0222017D01*
X0107500Y0222142D01*
D02*
G37*
G36*
Y0216560D02*
X0106903Y0216441D01*
X0106397Y0216103D01*
X0106059Y0215597D01*
X0105940Y0215000D01*
X0106059Y0214403D01*
X0106397Y0213897D01*
X0106903Y0213559D01*
X0107500Y0213440D01*
X0108097Y0213559D01*
X0108603Y0213897D01*
X0108941Y0214403D01*
X0109060Y0215000D01*
X0108941Y0215597D01*
X0108603Y0216103D01*
X0108097Y0216441D01*
X0107500Y0216560D01*
D02*
G37*
G36*
Y0227728D02*
X0106839Y0227597D01*
X0106278Y0227222D01*
X0105903Y0226661D01*
X0105772Y0226000D01*
X0105903Y0225339D01*
X0106278Y0224778D01*
X0106839Y0224403D01*
X0107500Y0224272D01*
X0108161Y0224403D01*
X0108722Y0224778D01*
X0109097Y0225339D01*
X0109228Y0226000D01*
X0109097Y0226661D01*
X0108722Y0227222D01*
X0108161Y0227597D01*
X0107500Y0227728D01*
D02*
G37*
G36*
Y0239442D02*
X0106757Y0239295D01*
X0106127Y0238873D01*
X0105705Y0238243D01*
X0105558Y0237500D01*
X0105705Y0236757D01*
X0106127Y0236127D01*
X0106757Y0235705D01*
X0107500Y0235558D01*
X0108243Y0235705D01*
X0108873Y0236127D01*
X0109294Y0236757D01*
X0109442Y0237500D01*
X0109294Y0238243D01*
X0108873Y0238873D01*
X0108243Y0239295D01*
X0107500Y0239442D01*
D02*
G37*
G36*
Y0233330D02*
X0106800Y0233191D01*
X0106206Y0232794D01*
X0105809Y0232200D01*
X0105670Y0231500D01*
X0105809Y0230800D01*
X0106206Y0230206D01*
X0106800Y0229809D01*
X0107500Y0229670D01*
X0108200Y0229809D01*
X0108794Y0230206D01*
X0109191Y0230800D01*
X0109330Y0231500D01*
X0109191Y0232200D01*
X0108794Y0232794D01*
X0108200Y0233191D01*
X0107500Y0233330D01*
D02*
G37*
G36*
X0422000Y0158969D02*
X0421456Y0158897D01*
X0420483Y0158494D01*
X0419647Y0157853D01*
X0419006Y0157017D01*
X0418603Y0156044D01*
X0418531Y0155500D01*
X0422000D01*
Y0158969D01*
D02*
G37*
G36*
X0432500Y0158833D02*
X0431508Y0158702D01*
X0430584Y0158319D01*
X0429790Y0157710D01*
X0429181Y0156916D01*
X0428798Y0155992D01*
X0428667Y0155000D01*
X0428798Y0154008D01*
X0429181Y0153084D01*
X0429790Y0152290D01*
X0430584Y0151681D01*
X0431508Y0151298D01*
X0432500Y0151167D01*
X0433492Y0151298D01*
X0434416Y0151681D01*
X0435210Y0152290D01*
X0435819Y0153084D01*
X0436202Y0154008D01*
X0436333Y0155000D01*
X0436202Y0155992D01*
X0435819Y0156916D01*
X0435210Y0157710D01*
X0434416Y0158319D01*
X0433492Y0158702D01*
X0432500Y0158833D01*
D02*
G37*
G36*
X0423000Y0158969D02*
Y0155500D01*
X0426469D01*
X0426397Y0156044D01*
X0425994Y0157017D01*
X0425353Y0157853D01*
X0424517Y0158494D01*
X0423544Y0158897D01*
X0423000Y0158969D01*
D02*
G37*
G36*
X0107500Y0211494D02*
X0106928Y0211380D01*
X0106444Y0211056D01*
X0106120Y0210572D01*
X0106006Y0210000D01*
X0106120Y0209428D01*
X0106444Y0208944D01*
X0106928Y0208620D01*
X0107500Y0208506D01*
X0108072Y0208620D01*
X0108556Y0208944D01*
X0108880Y0209428D01*
X0108994Y0210000D01*
X0108880Y0210572D01*
X0108556Y0211056D01*
X0108072Y0211380D01*
X0107500Y0211494D01*
D02*
G37*
G36*
Y0206427D02*
X0106954Y0206319D01*
X0106491Y0206009D01*
X0106181Y0205546D01*
X0106073Y0205000D01*
X0106181Y0204454D01*
X0106491Y0203991D01*
X0106954Y0203681D01*
X0107500Y0203573D01*
X0108046Y0203681D01*
X0108509Y0203991D01*
X0108819Y0204454D01*
X0108927Y0205000D01*
X0108819Y0205546D01*
X0108509Y0206009D01*
X0108046Y0206319D01*
X0107500Y0206427D01*
D02*
G37*
%LPD*%
D41*
X0407000Y0295500D02*
X0412500Y0290000D01*
X0318000Y0295500D02*
X0407000D01*
X0312500Y0290000D02*
X0318000Y0295500D01*
X0307000D02*
X0312500Y0290000D01*
X0278000Y0295500D02*
X0307000D01*
X0275000Y0292500D02*
X0278000Y0295500D01*
X0275000Y0287000D02*
Y0292500D01*
X0361000Y0143000D02*
X0364500Y0146500D01*
X0351000Y0143000D02*
X0361000D01*
X0347500Y0146500D02*
X0351000Y0143000D01*
D42*
X0422500Y0155000D02*
D03*
X0432500D02*
D03*
X0422500Y0135000D02*
D03*
Y0145000D02*
D03*
X0432500D02*
D03*
Y0135000D02*
D03*
D43*
X0282500Y0290000D02*
D03*
Y0110000D02*
D03*
D44*
X0292500Y0290000D02*
D03*
X0302500D02*
D03*
X0312500D02*
D03*
X0322500D02*
D03*
X0332500D02*
D03*
X0342500D02*
D03*
X0352500D02*
D03*
X0362500D02*
D03*
X0372500D02*
D03*
X0382500D02*
D03*
X0392500D02*
D03*
X0402500D02*
D03*
X0412500D02*
D03*
X0422500D02*
D03*
X0292500Y0110000D02*
D03*
X0302500D02*
D03*
X0312500D02*
D03*
X0322500D02*
D03*
X0332500D02*
D03*
X0342500D02*
D03*
X0352500D02*
D03*
X0362500D02*
D03*
X0372500D02*
D03*
X0382500D02*
D03*
X0392500D02*
D03*
X0402500D02*
D03*
X0412500D02*
D03*
X0422500D02*
D03*
D45*
X0239839Y0117238D02*
D03*
X0257161D02*
D03*
D46*
X0107500Y0283000D02*
D03*
D47*
Y0265000D02*
D03*
D48*
Y0250000D02*
D03*
D49*
Y0237500D02*
D03*
D50*
Y0226000D02*
D03*
D51*
Y0215000D02*
D03*
D52*
Y0205000D02*
D03*
D53*
X0275000Y0287000D02*
D03*
X0347500Y0146500D02*
D03*
X0440000Y0107500D02*
D03*
X0359500Y0146500D02*
D03*
X0404500Y0280500D02*
D03*
X0352500Y0146500D02*
D03*
X0345000Y0118500D02*
D03*
X0266000Y0287000D02*
D03*
X0246500Y0108000D02*
D03*
X0364500Y0146500D02*
D03*
D54*
X0189331Y0115169D02*
D03*
X0185000D02*
D03*
X0180669D02*
D03*
X0189331Y0119500D02*
D03*
X0185000D02*
D03*
X0180669D02*
D03*
X0189331Y0123831D02*
D03*
X0185000D02*
D03*
X0180669D02*
D03*
D55*
X0107500Y0210000D02*
D03*
D56*
Y0220500D02*
D03*
D57*
Y0231500D02*
D03*
D58*
Y0243500D02*
D03*
D59*
Y0257500D02*
D03*
D60*
Y0273500D02*
D03*
D61*
X0133500Y0281000D02*
D03*
D62*
X0200000Y0277000D02*
D03*
D63*
X0169500Y0279000D02*
D03*
M02*
