M48
;Layer_Color=9474304
;FILE_FORMAT=2:5
INCH
;TYPE=PLATED
T1F00S00C0.00787
T2F00S00C0.01260
T3F00S00C0.01420
T4F00S00C0.01500
T5F00S00C0.01590
T6F00S00C0.01790
T7F00S00C0.02010
T8F00S00C0.02260
T9F00S00C0.02540
T10F00S00C0.02850
T11F00S00C0.03200
T12F00S00C0.03583
T13F00S00C0.03590
T14F00S00C0.03900
T15F00S00C0.04000
T16F00S00C0.04030
T17F00S00C0.07870
T18F00S00C0.11800
T19F00S00C0.15750
%
T01
X0180669Y0115169
X0185000
X0189331
Y0119500
X0185000
X0180669
Y0123831
X0185000
X0189331
T02
X0107500Y0205500
T03
X0107500Y0212000
T04
X0232500Y0117500
X0246500Y0108000
X0232500Y0145000
X0287984Y0148500
X0347500Y0146500
X0352500
X0359500
X0364500
X0384000
X0442500Y0155000
X0440000Y0107500
X0345000Y0118500
X0312500Y0190000
X0405000Y0162500
X0404500Y0280500
X0442500Y0290000
X0275000Y0287000
X0266000
X0295000Y0190000
X0279000Y0167500
T05
X0107500Y0218500
T06
X0107500Y0225000
T07
X0107500Y0232500
T08
X0107500Y0240000
T09
X0107500Y0248000
T10
X0107500Y0256000
T11
X0107500Y0264000
T12
X0239839Y0117238
X0257161
T13
X0107500Y0273000
T14
X0282500Y0110000
X0292500
X0302500
X0312500
X0322500
X0332500
X0342500
X0352500
X0362500
X0372500
X0382500
X0392500
X0402500
X0412500
X0422500
Y0290000
X0412500
X0402500
X0392500
X0382500
X0372500
X0362500
X0352500
X0342500
X0332500
X0322500
X0312500
X0302500
X0292500
X0282500
T15
X0422500Y0135000
Y0145000
Y0155000
X0432500
Y0145000
Y0135000
T16
X0107500Y0282500
T17
X0200000Y0277000
T18
X0169500Y0279000
T19
X0133500Y0281000
M30
