G04 Layer_Color=16711935*
%FSAX25Y25*%
%MOIN*%
G70*
G01*
G75*
%ADD107C,0.06800*%
%ADD108R,0.07800X0.07800*%
%ADD109C,0.07800*%
%ADD110C,0.01800*%
%ADD111C,0.03800*%
%ADD112C,0.05030*%
%ADD113C,0.04200*%
%ADD114C,0.03540*%
%ADD115C,0.03010*%
%ADD116C,0.02590*%
%ADD117C,0.02260*%
%ADD118C,0.02769*%
%ADD119C,0.02420*%
%ADD120C,0.02790*%
%ADD121C,0.03260*%
%ADD122C,0.03850*%
%ADD123C,0.04590*%
%ADD124C,0.17150*%
%ADD125C,0.09270*%
%ADD126C,0.13200*%
D107*
X0422500Y0155000D02*
D03*
X0432500D02*
D03*
X0422500Y0135000D02*
D03*
Y0145000D02*
D03*
X0432500D02*
D03*
Y0135000D02*
D03*
D108*
X0282500Y0290000D02*
D03*
Y0110000D02*
D03*
D109*
X0292500Y0290000D02*
D03*
X0302500D02*
D03*
X0312500D02*
D03*
X0322500D02*
D03*
X0332500D02*
D03*
X0342500D02*
D03*
X0352500D02*
D03*
X0362500D02*
D03*
X0372500D02*
D03*
X0382500D02*
D03*
X0392500D02*
D03*
X0402500D02*
D03*
X0412500D02*
D03*
X0422500D02*
D03*
X0292500Y0110000D02*
D03*
X0302500D02*
D03*
X0312500D02*
D03*
X0322500D02*
D03*
X0332500D02*
D03*
X0342500D02*
D03*
X0352500D02*
D03*
X0362500D02*
D03*
X0372500D02*
D03*
X0382500D02*
D03*
X0392500D02*
D03*
X0402500D02*
D03*
X0412500D02*
D03*
X0422500D02*
D03*
D110*
X0239839Y0117238D02*
D03*
X0257161D02*
D03*
D111*
X0232500Y0145000D02*
D03*
Y0117500D02*
D03*
X0287984Y0148500D02*
D03*
X0442500Y0290000D02*
D03*
Y0155000D02*
D03*
X0295000Y0190000D02*
D03*
X0312500D02*
D03*
X0405000Y0162500D02*
D03*
X0384000Y0146500D02*
D03*
X0279000Y0167500D02*
D03*
X0275000Y0287000D02*
D03*
X0347500Y0146500D02*
D03*
X0440000Y0107500D02*
D03*
X0359500Y0146500D02*
D03*
X0404500Y0280500D02*
D03*
X0352500Y0146500D02*
D03*
X0345000Y0118500D02*
D03*
X0266000Y0287000D02*
D03*
X0246500Y0108000D02*
D03*
X0364500Y0146500D02*
D03*
D112*
X0107500Y0282500D02*
D03*
D113*
Y0264000D02*
D03*
D114*
Y0248000D02*
D03*
D115*
Y0232500D02*
D03*
D116*
Y0218500D02*
D03*
D117*
Y0205500D02*
D03*
D118*
X0189331Y0115169D02*
D03*
X0185000D02*
D03*
X0180669D02*
D03*
X0189331Y0119500D02*
D03*
X0185000D02*
D03*
X0180669D02*
D03*
X0189331Y0123831D02*
D03*
X0185000D02*
D03*
X0180669D02*
D03*
D119*
X0107500Y0212000D02*
D03*
D120*
Y0225000D02*
D03*
D121*
Y0240000D02*
D03*
D122*
Y0256000D02*
D03*
D123*
Y0273000D02*
D03*
D124*
X0133500Y0281000D02*
D03*
D125*
X0200000Y0277000D02*
D03*
D126*
X0169500Y0279000D02*
D03*
M02*
